<svg xmlns="http://www.w3.org/2000/svg" version="1.1" xmlns:xlink="http://www.w3.org/1999/xlink" xmlns:svgjs="http://svgjs.dev/svgjs" width="1000" height="776" viewBox="0 0 1000 776"><g transform="matrix(1,0,0,1,-0.07014126353402617,0.3141761285166922)"><svg viewBox="0 0 318 247" data-background-color="#ffffff" preserveAspectRatio="xMidYMid meet" height="776" width="1000" xmlns="http://www.w3.org/2000/svg" xmlns:xlink="http://www.w3.org/1999/xlink"><defs></defs><g id="tight-bounds" transform="matrix(1,0,0,1,0.022304921803822708,-0.10000172769647975)"><svg viewBox="0 0 317.95539015639235 247.2" height="247.2" width="317.95539015639235"><g><svg viewBox="0 0 397.4975999999999 309.0414874604524" height="247.2" width="317.95539015639235"><g><rect width="397.4975999999999" height="9.465532589928385" x="0" y="169.83561588628706" fill="#0023ff" opacity="1" stroke-width="0" stroke="transparent" fill-opacity="1" class="rect-o-0" data-fill-palette-color="secondary" rx="1%" id="o-0" data-palette-color="#0023ff"></rect></g><g transform="matrix(1,0,0,1,0.9887999999999693,204.0800296016824)"><svg viewBox="0 0 395.52 104.96145785876995" height="104.96145785876995" width="395.52"><g><svg viewBox="0 0 395.52 104.96145785876995" height="104.96145785876995" width="395.52"><g><svg viewBox="0 0 395.52 104.96145785876995" height="104.96145785876995" width="395.52"><g transform="matrix(1,0,0,1,0,0)"><svg width="395.52" viewBox="3.450000047683716 -34.599998474121094 131.69000244140625 34.94999694824219" height="104.96145785876995" data-palette-color="#0023ff"><path d="M14.95-20.3L23.55-20.3Q26.2-20.3 27.28-19.45 28.35-18.6 28.35-16.55L28.35-16.55Q28.35-14.85 27.08-14.13 25.8-13.4 23.1-13.4L23.1-13.4 15-13.4 15-8.1 25.85-8.05Q28.65-8.05 29.88-7.23 31.1-6.4 31.1-4.3L31.1-4.3Q31.1-1.9 29.68-0.95 28.25 0 25.35 0L25.35 0 9.15 0Q6.2 0 4.83-1.58 3.45-3.15 3.45-7.15L3.45-7.15 3.45-28.25Q3.45-34.25 9.15-34.25L9.15-34.25 25.35-34.25Q28.25-34.25 29.68-33.35 31.1-32.45 31.1-30.1L31.1-30.1Q31.1-27.9 29.88-27.03 28.65-26.15 25.85-26.15L25.85-26.15 14.95-26.15 14.95-20.3ZM51.5-26.1L51.5-26.1Q49.35-26.1 48.32-24.85 47.3-23.6 47.3-20.4L47.3-20.4 47.3-14.5 55.6-14.5 55.6-20.5Q55.6-22.6 55.1-23.88 54.6-25.15 53.72-25.63 52.85-26.1 51.5-26.1ZM55.6-4.95L55.6-7.6 47.3-7.6 47.3-4.95Q47.3-2.4 45.95-1.2 44.6 0 41.3 0L41.3 0Q39.9 0 39-0.4 38.1-0.8 37.42-1.75 36.75-2.7 36.42-4.53 36.1-6.35 35.92-8.93 35.75-11.5 35.75-15.45L35.75-15.45Q35.75-18.9 36.47-21.78 37.2-24.65 38.42-26.65 39.65-28.65 41.2-30.18 42.75-31.7 44.57-32.55 46.4-33.4 48.12-33.83 49.85-34.25 51.6-34.25L51.6-34.25Q53.7-34.25 55.75-33.68 57.8-33.1 59.9-31.7 62-30.3 63.57-28.23 65.15-26.15 66.15-22.85 67.15-19.55 67.15-15.45L67.15-15.45Q67.15-8.85 66.67-5.68 66.2-2.5 65.07-1.25 63.95 0 61.6 0L61.6 0Q58.3 0 56.95-1.2 55.6-2.4 55.6-4.95L55.6-4.95ZM86.3-34.6L86.3-34.6Q92.25-34.6 96.45-32.15 100.65-29.7 100.65-26.95L100.65-26.95Q100.65-26.2 100.32-25.68 100-25.15 99.52-24.93 99.05-24.7 98.5-24.7L98.5-24.7Q97.6-24.7 95.8-25.63 94-26.55 91.8-27.48 89.6-28.4 87.75-28.4L87.75-28.4Q84.8-28.4 84.8-26L84.8-26Q84.8-25.25 85.27-24.58 85.75-23.9 86.8-23.18 87.85-22.45 88.85-21.9 89.85-21.35 91.6-20.43 93.35-19.5 94.55-18.8L94.55-18.8Q98.4-16.6 99.95-14.6 101.5-12.6 101.5-10L101.5-10Q101.5 0.35 87.55 0.35L87.55 0.35Q84.8 0.35 82.22-0.2 79.65-0.75 77.72-1.65 75.8-2.55 74.32-3.65 72.85-4.75 72.1-5.9 71.35-7.05 71.35-8.05L71.35-8.05Q71.35-9.15 72.07-9.93 72.8-10.7 74.2-10.7L74.2-10.7Q75.25-10.7 79.25-9.38 83.25-8.05 85.7-8.05L85.7-8.05Q87.95-8.05 87.95-9.6L87.95-9.6Q87.95-10.05 87.77-10.43 87.6-10.8 87.17-11.18 86.75-11.55 86.22-11.88 85.7-12.2 84.77-12.7 83.85-13.2 82.92-13.7 82-14.2 80.5-15 79-15.8 77.6-16.6L77.6-16.6Q75.75-17.65 74.42-19.2 73.1-20.75 72.5-22.28 71.9-23.8 71.9-25.1L71.9-25.1Q71.9-29.3 75.65-31.95 79.4-34.6 86.3-34.6ZM124.99-15L124.99-7.5Q124.99-3.45 123.54-1.73 122.09 0 119.09 0L119.09 0Q116.19 0 114.84-1.58 113.49-3.15 113.44-7.15L113.44-7.15 113.39-15.25 105.69-24.25Q103.59-26.65 103.59-28.4L103.59-28.4Q103.59-31.15 105.69-32.75L105.69-32.75Q107.69-34.25 109.24-34.25L109.24-34.25Q111.39-34.25 113.09-32.3L113.09-32.3 119.19-25.2 124.29-31.15Q126.84-34.2 129.74-34.2L129.74-34.2Q131.89-34.2 133.09-33L133.09-33Q135.14-30.95 135.14-29.05L135.14-29.05Q135.14-28 134.44-26.83 133.74-25.65 132.19-23.8L132.19-23.8 124.99-15Z" opacity="1" transform="matrix(1,0,0,1,0,0)" fill="#0023ff" class="undefined-text-0" data-fill-palette-color="primary" id="text-0"></path></svg></g></svg></g></svg></g></svg></g><g transform="matrix(1,0,0,1,118.22043261958991,0)"><svg viewBox="0 0 161.0567347608201 145.0567347608201" height="145.0567347608201" width="161.0567347608201"><g><svg xmlns="http://www.w3.org/2000/svg" xmlns:xlink="http://www.w3.org/1999/xlink" version="1.1" x="8" y="0" viewBox="14.189000129699707 14.189000129699707 71.62199401855469 71.62199401855469" enable-background="new 0 0 100 100" xml:space="preserve" height="145.0567347608201" width="145.0567347608201" class="icon-icon-0" data-fill-palette-color="accent" id="icon-0"><g fill="#0023ff" data-fill-palette-color="accent"><path d="M77.284 74.943c0 1.293-1.047 2.341-2.342 2.341H25.057c-1.292 0-2.34-1.048-2.34-2.341V25.056c0-1.292 1.048-2.34 2.34-2.34h49.885c1.295 0 2.342 1.048 2.342 2.34V74.943z" fill="#0023ff" data-fill-palette-color="accent"></path><g fill="#0023ff" data-fill-palette-color="accent"><g fill="#0023ff" data-fill-palette-color="accent"><rect x="32.91" y="14.189" width="6.101" height="6.102" fill="#0023ff" data-fill-palette-color="accent"></rect><rect x="42.269" y="14.189" width="6.101" height="6.102" fill="#0023ff" data-fill-palette-color="accent"></rect><rect x="51.63" y="14.189" width="6.101" height="6.102" fill="#0023ff" data-fill-palette-color="accent"></rect><rect x="60.989" y="14.189" width="6.101" height="6.102" fill="#0023ff" data-fill-palette-color="accent"></rect></g><g fill="#0023ff" data-fill-palette-color="accent"><rect x="32.91" y="79.709" width="6.101" height="6.102" fill="#0023ff" data-fill-palette-color="accent"></rect><rect x="42.269" y="79.709" width="6.101" height="6.102" fill="#0023ff" data-fill-palette-color="accent"></rect><rect x="51.63" y="79.709" width="6.101" height="6.102" fill="#0023ff" data-fill-palette-color="accent"></rect><rect x="60.989" y="79.709" width="6.101" height="6.102" fill="#0023ff" data-fill-palette-color="accent"></rect></g></g><g fill="#0023ff" data-fill-palette-color="accent"><g fill="#0023ff" data-fill-palette-color="accent"><rect x="79.708" y="32.91" width="6.103" height="6.101" fill="#0023ff" data-fill-palette-color="accent"></rect><rect x="79.708" y="42.269" width="6.103" height="6.102" fill="#0023ff" data-fill-palette-color="accent"></rect><rect x="79.708" y="51.629" width="6.103" height="6.102" fill="#0023ff" data-fill-palette-color="accent"></rect><rect x="79.708" y="60.989" width="6.103" height="6.101" fill="#0023ff" data-fill-palette-color="accent"></rect></g><g fill="#0023ff" data-fill-palette-color="accent"><rect x="14.189" y="32.91" width="6.102" height="6.101" fill="#0023ff" data-fill-palette-color="accent"></rect><rect x="14.189" y="42.269" width="6.102" height="6.102" fill="#0023ff" data-fill-palette-color="accent"></rect><rect x="14.189" y="51.629" width="6.102" height="6.102" fill="#0023ff" data-fill-palette-color="accent"></rect><rect x="14.189" y="60.989" width="6.102" height="6.101" fill="#0023ff" data-fill-palette-color="accent"></rect></g></g></g></svg></g></svg></g><g><rect width="17.719848177915196" height="9.465532589928385" y="134.5912021708917" x="279.27716738041" fill="#0023ff" data-fill-palette-color="secondary"></rect><rect width="17.719848177915196" height="9.465532589928385" y="134.5912021708917" x="100.50058444167472" fill="#0023ff" data-fill-palette-color="secondary"></rect></g></svg></g></svg><rect width="317.95539015639235" height="247.2" fill="none" stroke="none" visibility="hidden"></rect></g></svg></g></svg>